<svg id="logo" xmlns="http://www.w3.org/2000/svg" width="186" height="41.05" viewBox="0 0 186 41.05">
  <path id="Path_2" data-name="Path 2" d="M-687.67,5389.208h-8.01V5386.3h8.01q2.912,0,2.913-1.238t-4.369-1.675q-7.282-.437-7.282-4.588t5.826-4.15h8.01v2.912h-8.01q-2.913,0-2.913,1.238t4.369,1.675q7.282.437,7.282,4.588T-687.67,5389.208Z" transform="translate(766.441 -5374.646)" fill="#f5264b"/>
  <path id="Path_3" data-name="Path 3" d="M-670.466,5383.383v-8.738h2.912v8.738a2.574,2.574,0,0,0,2.913,2.913h2.912a2.575,2.575,0,0,0,2.913-2.913v-8.738h2.912v8.738q0,5.826-5.825,5.825h-2.912Q-670.466,5389.208-670.466,5383.383Z" transform="translate(757.379 -5374.646)" fill="#f5264b"/>
  <path id="Path_4" data-name="Path 4" d="M-635.621,5386.3a2.575,2.575,0,0,0,2.913-2.913h2.912q0,5.826-5.825,5.825h-2.912q-5.826,0-5.826-5.825v-2.913q0-5.825,5.826-5.825h2.912q5.826,0,5.825,5.825h-2.912a2.575,2.575,0,0,0-2.913-2.913h-2.912a2.574,2.574,0,0,0-2.913,2.913v2.913a2.574,2.574,0,0,0,2.913,2.913Z" transform="translate(748.259 -5374.646)" fill="#f5264b"/>
  <path id="Path_5" data-name="Path 5" d="M-612.568,5386.3h7.282v2.913h-7.282q-5.826,0-5.826-5.825v-2.913q0-5.825,5.826-5.825h2.912q5.825,0,5.826,5.825v2.913h-11.651A2.574,2.574,0,0,0-612.568,5386.3Zm-2.913-5.826h8.739a2.575,2.575,0,0,0-2.913-2.913h-2.912A2.574,2.574,0,0,0-615.482,5380.47Z" transform="translate(739.189 -5374.646)" fill="#f5264b"/>
  <path id="Path_6" data-name="Path 6" d="M-583.714,5389.208h-8.01V5386.3h8.01q2.912,0,2.913-1.238t-4.369-1.675q-7.282-.437-7.282-4.588t5.826-4.15h8.01v2.912h-8.01q-2.913,0-2.913,1.238t4.369,1.675q7.282.437,7.282,4.588T-583.714,5389.208Z" transform="translate(730.126 -5374.646)" fill="#f5264b"/>
  <path id="Path_7" data-name="Path 7" d="M-558.427,5389.208h-8.01V5386.3h8.01q2.912,0,2.912-1.238t-4.369-1.675q-7.282-.437-7.282-4.588t5.826-4.15h8.01v2.912h-8.01q-2.912,0-2.912,1.238t4.369,1.675q7.282.437,7.282,4.588T-558.427,5389.208Z" transform="translate(721.293 -5374.646)" fill="#f5264b"/>
  <path id="Path_8" data-name="Path 8" d="M-541.224,5380.47q0-5.825,5.826-5.825h2.913q5.825,0,5.825,5.825v2.913q0,5.826-5.825,5.825H-535.4q-5.826,0-5.826-5.825Zm5.826-2.913a2.574,2.574,0,0,0-2.912,2.913v2.913a2.574,2.574,0,0,0,2.912,2.913h2.913a2.574,2.574,0,0,0,2.912-2.913v-2.913a2.574,2.574,0,0,0-2.912-2.913Z" transform="translate(712.231 -5374.646)" fill="#f5264b"/>
  <path id="Path_9" data-name="Path 9" d="M-798.215,5418.05h7.282v2.912h-7.282q-5.826,0-5.825-5.825v-2.913q0-5.826,5.825-5.826h2.912q5.826,0,5.825,5.826v2.913h-11.651A2.574,2.574,0,0,0-798.215,5418.05Zm-2.913-5.825h8.739a2.575,2.575,0,0,0-2.913-2.913h-2.912A2.575,2.575,0,0,0-801.128,5412.225Z" transform="translate(804.04 -5385.737)" fill="#004fb9"/>
  <path id="Path_10" data-name="Path 10" d="M-775.163,5412.225v8.737h-2.912v-8.737q0-5.826,5.826-5.826a5.932,5.932,0,0,1,4.369,1.457,5.933,5.933,0,0,1,4.369-1.457q5.826,0,5.825,5.826v8.737H-760.6v-8.737a2.575,2.575,0,0,0-2.913-2.913,2.575,2.575,0,0,0-2.912,2.913v8.737h-2.913v-8.737a2.575,2.575,0,0,0-2.912-2.913A2.575,2.575,0,0,0-775.163,5412.225Z" transform="translate(794.97 -5385.737)" fill="#004fb9"/>
  <path id="Path_11" data-name="Path 11" d="M-742.722,5412.225q0-5.826,5.826-5.826h2.913q5.825,0,5.825,5.826v2.913q0,5.826-5.825,5.825H-736.9a7.667,7.667,0,0,1-2.912-.495v6.32h-2.913Zm5.826-2.913a2.575,2.575,0,0,0-2.912,2.913v2.913a2.574,2.574,0,0,0,2.912,2.913h2.913a2.574,2.574,0,0,0,2.912-2.913v-2.913a2.575,2.575,0,0,0-2.912-2.913Z" transform="translate(782.62 -5385.737)" fill="#004fb9"/>
  <path id="Path_12" data-name="Path 12" d="M-713.7,5412.225v8.737h-2.913v-8.737q0-5.826,5.826-5.826h2.913v2.913h-2.913A2.575,2.575,0,0,0-713.7,5412.225Z" transform="translate(773.5 -5385.737)" fill="#004fb9"/>
  <path id="Path_13" data-name="Path 13" d="M-694.1,5418.05h7.282v2.912H-694.1q-5.825,0-5.826-5.825v-2.913q0-5.826,5.826-5.826h2.913q5.825,0,5.825,5.826v2.913h-11.651A2.574,2.574,0,0,0-694.1,5418.05Zm-2.912-5.825h8.738a2.575,2.575,0,0,0-2.912-2.913H-694.1A2.575,2.575,0,0,0-697.011,5412.225Z" transform="translate(767.669 -5385.737)" fill="#004fb9"/>
  <path id="Path_14" data-name="Path 14" d="M-665.221,5406.4q5.825,0,5.826,5.826v8.737q0,5.826-5.826,5.826H-672.5v-2.912h7.282a2.575,2.575,0,0,0,2.912-2.914v-.495a7.671,7.671,0,0,1-2.912.495h-2.913q-5.826,0-5.825-5.825v-2.913q0-5.826,5.825-5.826Zm-2.913,2.913a2.575,2.575,0,0,0-2.912,2.913v2.913a2.574,2.574,0,0,0,2.912,2.913h2.913a2.574,2.574,0,0,0,2.912-2.913v-2.913a2.575,2.575,0,0,0-2.912-2.913Z" transform="translate(758.599 -5385.737)" fill="#004fb9"/>
  <path id="Path_15" data-name="Path 15" d="M-647.788,5412.225q0-5.826,5.825-5.826h2.913q5.825,0,5.825,5.826v2.913q0,5.826-5.825,5.825h-2.913q-5.825,0-5.825-5.825Zm5.825-2.913a2.575,2.575,0,0,0-2.912,2.913v2.913a2.574,2.574,0,0,0,2.912,2.913h2.913a2.574,2.574,0,0,0,2.912-2.913v-2.913a2.575,2.575,0,0,0-2.912-2.913Z" transform="translate(749.457 -5385.737)" fill="#004fb9"/>
  <path id="Path_16" data-name="Path 16" d="M-613.107,5420.962h-8.01v-2.912h8.01q2.912,0,2.912-1.238t-4.369-1.675q-7.282-.437-7.282-4.587t5.825-4.151h8.01v2.913h-8.01q-2.912,0-2.912,1.238t4.369,1.675q7.281.437,7.282,4.587T-613.107,5420.962Z" transform="translate(740.395 -5385.737)" fill="#004fb9"/>
  <path id="Path_17" data-name="Path 17" d="M-596.009,5424.964h2.484v2.484h-2.484Z" transform="translate(731.369 -5392.223)" fill="#004fb9"/>
  <path id="Path_18" data-name="Path 18" d="M-581.854,5419.63a2.2,2.2,0,0,0,2.484-2.484h2.484q0,4.968-4.967,4.967h-2.484q-4.967,0-4.967-4.967v-2.484q0-4.967,4.967-4.968h2.484q4.967,0,4.967,4.968h-2.484a2.195,2.195,0,0,0-2.484-2.483h-2.484a2.195,2.195,0,0,0-2.484,2.483v2.484a2.2,2.2,0,0,0,2.484,2.484Z" transform="translate(729.027 -5386.889)" fill="#004fb9"/>
  <path id="Path_19" data-name="Path 19" d="M-567.164,5414.663q0-4.967,4.967-4.968h2.484q4.968,0,4.968,4.968v2.484q0,4.968-4.968,4.967H-562.2q-4.967,0-4.967-4.967Zm4.967-2.483a2.195,2.195,0,0,0-2.484,2.483v2.484a2.2,2.2,0,0,0,2.484,2.484h2.484a2.2,2.2,0,0,0,2.484-2.484v-2.484a2.195,2.195,0,0,0-2.484-2.483Z" transform="translate(721.293 -5386.889)" fill="#004fb9"/>
  <path id="Path_20" data-name="Path 20" d="M-542.418,5414.663v7.451H-544.9v-7.451q0-4.967,4.967-4.968a5.06,5.06,0,0,1,3.726,1.243,5.059,5.059,0,0,1,3.726-1.243q4.967,0,4.967,4.968v7.451H-530v-7.451a2.195,2.195,0,0,0-2.484-2.483,2.2,2.2,0,0,0-2.484,2.483v7.451h-2.484v-7.451a2.195,2.195,0,0,0-2.484-2.483A2.195,2.195,0,0,0-542.418,5414.663Z" transform="translate(713.516 -5386.889)" fill="#004fb9"/>
</svg>
